# xmcd
#
# Track frame offsets:
#	150
#	13468
#	30870
#	48231
#	59800
#	75169
#	88827
#	105281
#	119886
#	138039
#
# Disc length: 2038 seconds
#
# Revision: 0
# Processed by: cddbd v1.5.2PL0 Copyright (c) Steve Scherf et al.
# Submitted via: EasyCDDAExtractor 12.0.0.1
#
DISCID=7a07f40a
DTITLE=Elise - Sõpradele
DYEAR=2009
DGENRE=Pop
TTITLE0=Sõpradele
TTITLE1=Sind tervitab
TTITLE2=Aega luuleks
TTITLE3=Laulukarusell
TTITLE4=Koolirahu
TTITLE5=SOS
TTITLE6=Armastuse puu
TTITLE7=Tee, mis viis
TTITLE8=Hommik
TTITLE9=Kaugele ära
EXTD=
EXTT0=
EXTT1=
EXTT2=
EXTT3=
EXTT4=
EXTT5=
EXTT6=
EXTT7=
EXTT8=
EXTT9=
PLAYORDER=
